<svg width="128" height="128" viewBox="0 0 128 128" fill="none" xmlns="http://www.w3.org/2000/svg">
<rect width="128" height="128" rx="64" fill="#1C1E1E"/>
<rect width="128" height="128" rx="64" fill="black" fill-opacity="0.2"/>
<path d="M20 70H107.5" stroke="#F9A9D5"/>
<path d="M81.5786 82H107.647" stroke="#F9A9D5"/>
<path d="M20 69L25.184 51.312H32.48L37.664 69H32.912L32.024 65.472H25.64L24.752 69H20ZM26.528 62.016H31.136L29.264 54.696H28.4L26.528 62.016ZM39.2799 69V65.904H46.0239L46.6959 65.256V64.752L46.0239 64.08H41.1999L38.6319 61.752V58.8L41.1759 56.472H49.8639V59.544H43.5759L42.9759 60.216V60.552L43.6239 61.224H48.5199L51.0879 63.552V66.648L48.5439 69H39.2799ZM56.1911 69L53.6711 66.672V59.256H52.7591V56.472H53.8391L55.2071 52.896H58.1591V56.472H60.1271V59.256H58.1591V65.496L58.8071 66.144H60.6311V69H56.1911ZM65.0906 69L62.4266 66.336V59.136L65.0906 56.472H72.9146L75.5786 59.136V66.336L72.9146 69H65.0906ZM67.7546 66.504H70.2506L71.0906 65.64V59.808L70.2506 58.968H67.7546L66.9146 59.808V65.64L67.7546 66.504ZM78.3491 69V51.312H82.8371V69H78.3491ZM85.9423 69V59.256H84.9343V56.472H85.9423V53.664L88.4863 51.312H93.2143V53.928H91.1023L90.4303 54.576V56.472H92.6383V59.256H90.4303V69H85.9423ZM97.0828 69L94.4188 66.336V59.136L97.0828 56.472H104.907L107.571 59.136V66.336L104.907 69H97.0828ZM99.7468 66.504H102.243L103.083 65.64V59.808L102.243 58.968H99.7468L98.9068 59.808V65.64L99.7468 66.504Z" fill="white"/>
<path d="M82.932 81L81.6 79.668V73.488L82.932 72.156H87.48L88.824 73.488V75.276H86.64V74.28L86.208 73.86H84.276L83.844 74.28V78.876L84.276 79.296H86.28L86.724 78.876V77.868H88.896V79.668L87.564 81H82.932ZM90.7311 81L89.3991 79.668V78.336L90.7311 77.004H93.7191V76.584L93.2871 76.152H90.1431V74.736H94.6191L95.9631 76.068V81H93.7191V80.148L92.8911 81H90.7311ZM92.0511 79.776H92.6991L93.7191 78.756V78.12H92.0511L91.6311 78.54V79.356L92.0511 79.776ZM97.3891 81V76.128H96.8851V74.736H97.3891V73.332L98.6611 72.156H101.025V73.464H99.9691L99.6331 73.788V74.736H100.737V76.128H99.6331V81H97.3891ZM102.877 81L101.545 79.668V76.068L102.877 74.736H106.405L107.737 76.068V78.444H103.789V78.996L104.221 79.416H107.641V81H102.877ZM103.789 77.148H105.697V76.404L105.265 75.984H104.221L103.789 76.404V77.148Z" fill="white"/>
</svg>
